<svg width="16" height="16" viewBox="0 0 16 16" fill="none" xmlns="http://www.w3.org/2000/svg">
<path d="M12.4703 13.6343C12.4703 14.1703 12.0344 14.6062 11.5 14.6062H4.50156C3.96563 14.6046 3.53125 14.1703 3.52969 13.6343V3.32495H12.4703V13.6343ZM5.47188 1.5812C5.47188 1.4687 5.55937 1.3812 5.67188 1.3812H10.3406C10.4531 1.3812 10.5391 1.4687 10.5391 1.5812V2.16714H5.47188V1.5812ZM15.3828 2.16714H11.6984V1.5812C11.6984 0.834326 11.0891 0.223389 10.3406 0.223389H5.67188C4.92344 0.224951 4.31563 0.831201 4.31406 1.5812V2.16714H0.617188C0.292188 2.16714 0.03125 2.42808 0.03125 2.75151C0.03125 3.07495 0.292188 3.33745 0.617188 3.33745H2.35938V13.6343C2.35938 14.8171 3.31875 15.7765 4.50156 15.7765H11.4984C12.6813 15.7765 13.6406 14.8171 13.6406 13.6343V3.32495H15.3844C15.7078 3.32495 15.9703 3.06401 15.9703 2.73901C15.9703 2.41401 15.7078 2.16714 15.3828 2.16714ZM8 12.85C8.32344 12.85 8.58594 12.589 8.58594 12.264V6.03901C8.58594 5.71558 8.325 5.45308 8 5.45308C7.67656 5.45308 7.41406 5.71401 7.41406 6.03901V12.264C7.41406 12.5875 7.67656 12.85 8 12.85ZM5.27344 12.85C5.59688 12.85 5.85938 12.589 5.85938 12.264V6.03901C5.85938 5.71558 5.59844 5.45308 5.27344 5.45308C4.95 5.45308 4.6875 5.71401 4.6875 6.03901V12.264C4.7 12.5875 4.9625 12.85 5.27344 12.85ZM10.7266 12.85C11.05 12.85 11.3125 12.589 11.3125 12.264V6.03901C11.3125 5.71558 11.0516 5.45308 10.7266 5.45308C10.4031 5.45308 10.1406 5.71401 10.1406 6.03901V12.264C10.1422 12.5875 10.4031 12.85 10.7266 12.85Z" fill="#797979"/>
</svg>
