<svg width="27" height="31" viewBox="0 0 27 31" fill="none" xmlns="http://www.w3.org/2000/svg">
<path d="M20.7407 0.333008H2.96296C1.31852 0.333008 0 1.83301 0 3.66634V26.9997C0 28.833 1.31852 30.333 2.96296 30.333H23.7037C25.3333 30.333 26.6667 28.833 26.6667 26.9997V6.99967L20.7407 0.333008ZM13.3333 26.9997C10.8741 26.9997 8.88889 24.7663 8.88889 21.9997C8.88889 19.233 10.8741 16.9997 13.3333 16.9997C15.7926 16.9997 17.7778 19.233 17.7778 21.9997C17.7778 24.7663 15.7926 26.9997 13.3333 26.9997ZM17.7778 10.333H2.96296V3.66634H17.7778V10.333Z" fill="white"/>
</svg>
